<?xml version="1.0" encoding="iso-8859-1"?>
<!-- Uploaded to: SVG Repo, www.svgrepo.com, Generator: SVG Repo Mixer Tools -->
<svg height="800px" width="800px" version="1.1" id="Layer_1" xmlns="http://www.w3.org/2000/svg" xmlns:xlink="http://www.w3.org/1999/xlink" 
	 viewBox="0 0 512.001 512.001" xml:space="preserve">
<polygon style="fill:#FFA22B;" points="501.802,251.209 451.318,239.669 475.839,158.896 395.065,183.417 383.526,132.933 
	318.467,220.191 339.635,74.966 295.778,102.504 256.001,28.05 216.225,102.504 172.368,74.966 193.534,220.191 128.476,132.933 
	116.937,183.417 36.163,158.896 60.684,239.669 10.201,251.209 180.209,377.964 134.759,431.937 134.759,431.937 377.244,431.937 
	377.244,431.937 331.793,377.964 "/>
<g>
	<path style="fill:#570029;" d="M511.781,249.103c-0.821-3.891-3.83-6.951-7.707-7.837l-39.82-9.102l21.343-70.306
		c1.093-3.601,0.114-7.513-2.547-10.175c-2.661-2.662-6.574-3.64-10.175-2.548l-70.307,21.343l-9.101-39.819
		c-0.886-3.878-3.946-6.885-7.838-7.708c-3.889-0.82-7.905,0.695-10.282,3.884l-40.979,54.961l15.357-105.362
		c0.574-3.936-1.193-7.845-4.525-10.017c-3.332-2.17-7.624-2.207-10.991-0.092l-34.593,21.72l-34.621-64.806
		c-1.774-3.32-5.232-5.393-8.996-5.393c-3.764,0-7.222,2.073-8.996,5.393l-34.622,64.806l-34.592-21.72
		c-3.369-2.115-7.659-2.08-10.991,0.092c-3.333,2.171-5.1,6.081-4.525,10.017l15.357,105.362l-40.979-54.962
		c-2.377-3.189-6.39-4.703-10.283-3.884c-3.891,0.821-6.951,3.83-7.837,7.708l-9.102,39.819l-70.305-21.343
		c-3.601-1.091-7.513-0.113-10.175,2.548c-2.661,2.662-3.641,6.573-2.548,10.175l21.343,70.306l-39.82,9.102
		c-3.877,0.886-6.885,3.945-7.707,7.837c-0.821,3.892,0.695,7.905,3.883,10.283l161.333,120.287l-38.481,45.695
		c-2.555,3.034-3.12,7.275-1.446,10.872s5.28,5.897,9.248,5.897H245.8v41.817c0,5.633,4.566,10.199,10.199,10.199
		c5.632,0,10.199-4.566,10.199-10.199v-41.817h111.044c3.967,0,7.574-2.3,9.247-5.897s1.11-7.838-1.445-10.872l-38.48-45.695
		l161.334-120.287C511.086,257.008,512.602,252.995,511.781,249.103z M325.696,369.788c-2.252,1.68-3.713,4.214-4.035,7.006
		c-0.322,2.79,0.52,5.591,2.329,7.741l31.331,37.205H156.681l31.33-37.205c1.81-2.149,2.654-4.951,2.331-7.741
		c-0.322-2.792-1.783-5.326-4.036-7.006L34,256.231l28.958-6.619c2.758-0.63,5.129-2.378,6.549-4.824
		c1.42-2.447,1.759-5.374,0.937-8.081l-12.288-40.48l113.211,110.422c1.984,1.935,4.553,2.898,7.12,2.898
		c2.653,0,5.304-1.029,7.303-3.078c3.933-4.033,3.852-10.49-0.18-14.423L70.805,180.071l43.169,13.105
		c2.707,0.821,5.633,0.482,8.081-0.937c2.447-1.42,4.194-3.792,4.824-6.55l6.618-28.956l51.859,69.555
		c2.79,3.742,7.766,5.114,12.08,3.326c4.313-1.786,6.863-6.274,6.19-10.894L185.644,95.347l25.155,15.795
		c2.396,1.504,5.309,1.946,8.043,1.22s5.044-2.556,6.377-5.051l20.582-38.525v174.466c0,5.633,4.566,10.199,10.199,10.199
		c5.632,0,10.199-4.566,10.199-10.199V68.785l20.582,38.525c1.334,2.495,3.642,4.324,6.377,5.051
		c2.735,0.727,5.648,0.285,8.043-1.22l25.156-15.795l-17.982,123.373c-0.673,4.62,1.877,9.108,6.189,10.894
		c4.31,1.786,9.288,0.417,12.08-3.326l51.859-69.554l6.618,28.956c0.63,2.758,2.378,5.13,4.825,6.55
		c2.446,1.42,5.376,1.759,8.08,0.937l42.939-13.035l-87.544,85.388c-4.032,3.933-4.112,10.391-0.181,14.423
		c1.999,2.049,4.65,3.078,7.303,3.078c2.568,0,5.137-0.964,7.12-2.898l86.25-84.126l-12.355,40.701
		c-0.823,2.707-0.483,5.633,0.937,8.081c1.42,2.447,3.791,4.194,6.549,4.824l28.958,6.619L325.696,369.788z"/>
	<path style="fill:#570029;" d="M329.452,288.907l-3.219,3.14c-4.032,3.934-4.111,10.391-0.178,14.423
		c1.999,2.049,4.65,3.077,7.302,3.077c2.568,0,5.137-0.964,7.121-2.899l3.219-3.14c4.032-3.934,4.111-10.391,0.178-14.423
		C339.941,285.054,333.486,284.974,329.452,288.907z"/>
</g>
</svg>